<svg width="37" height="37" viewBox="0 0 37 37" fill="none" xmlns="http://www.w3.org/2000/svg">
<path d="M30.3564 0C33.6701 6.64571e-05 36.3564 2.68633 36.3564 6V30.3564C36.3564 33.6701 33.6701 36.3564 30.3564 36.3564H6C2.68629 36.3564 0 33.6702 0 30.3564V6C0 2.68629 2.68629 0 6 0H30.3564ZM18.2383 5.51367C17.4353 5.51389 16.7842 6.16571 16.7842 6.96875V18.8701C15.7388 18.4286 14.5545 18.1787 13.2998 18.1787C9.06662 18.1789 5.63477 21.0137 5.63477 24.5107C5.635 28.0076 9.06677 30.8426 13.2998 30.8428C17.533 30.8428 20.9656 28.0077 20.9658 24.5107C20.9658 24.3166 20.9533 24.1243 20.9326 23.9346H20.9658V12.4219H30.6602C31.4632 12.4219 32.1151 11.7708 32.1152 10.9678V6.96875C32.1152 6.16558 31.4633 5.51367 30.6602 5.51367H18.2383Z" fill="white"/>
</svg>
